<svg width="24" height="25" viewBox="0 0 24 25" fill="none" xmlns="http://www.w3.org/2000/svg">
<path d="M20.3303 4.60929C18.7535 3.88739 17.0888 3.37524 15.3789 3.08594C15.1449 3.50423 14.9332 3.93459 14.7446 4.37522C12.9232 4.10076 11.071 4.10076 9.24961 4.37522C9.06095 3.93463 8.84924 3.50428 8.61535 3.08594C6.90433 3.37768 5.2386 3.89104 3.66019 4.61307C0.526644 9.24921 -0.322811 13.7702 0.101917 18.227C1.937 19.5829 3.99098 20.614 6.17458 21.2756C6.66626 20.6143 7.10134 19.9128 7.47519 19.1784C6.76511 18.9132 6.07975 18.586 5.42706 18.2006C5.59884 18.076 5.76684 17.9476 5.92918 17.8231C7.82837 18.7162 9.90124 19.1793 12 19.1793C14.0987 19.1793 16.1715 18.7162 18.0707 17.8231C18.235 17.9571 18.403 18.0854 18.5729 18.2006C17.9189 18.5866 17.2323 18.9144 16.5209 19.1803C16.8943 19.9143 17.3294 20.6153 17.8216 21.2756C20.007 20.6167 22.0626 19.586 23.898 18.2289C24.3963 13.0604 23.0467 8.58097 20.3303 4.60929ZM8.01318 15.4861C6.82961 15.4861 5.85179 14.412 5.85179 13.0906C5.85179 11.7693 6.79563 10.6857 8.0094 10.6857C9.22318 10.6857 10.1934 11.7693 10.1727 13.0906C10.1519 14.412 9.21941 15.4861 8.01318 15.4861ZM15.9867 15.4861C14.8013 15.4861 13.8272 14.412 13.8272 13.0906C13.8272 11.7693 14.7711 10.6857 15.9867 10.6857C17.2024 10.6857 18.1651 11.7693 18.1444 13.0906C18.1236 14.412 17.193 15.4861 15.9867 15.4861Z" fill="white"/>
</svg>
