<svg width="24" height="25" viewBox="0 0 24 25" fill="none" xmlns="http://www.w3.org/2000/svg">
<g clip-path="url(#clip0_3163_43108)">
<path d="M12 22.0859C6.477 22.0859 2 17.6089 2 12.0859C2 6.56294 6.477 2.08594 12 2.08594C17.523 2.08594 22 6.56294 22 12.0859C22 17.6089 17.523 22.0859 12 22.0859ZM8.89 13.2559L8.903 13.2489L9.773 16.1189C9.885 16.4299 10.039 16.4859 10.226 16.4599C10.414 16.4349 10.513 16.3339 10.636 16.2159L11.824 15.0679L14.374 16.9559C14.84 17.2129 15.175 17.0799 15.291 16.5239L16.948 8.70194C17.131 7.97394 16.811 7.68194 16.246 7.91394L6.513 11.6739C5.849 11.9399 5.853 12.3119 6.393 12.4769L8.89 13.2559Z" fill="white"/>
</g>
<defs>
<clipPath id="clip0_3163_43108">
<rect width="24" height="24" fill="transparent" transform="translate(0 0.0859375)"/>
</clipPath>
</defs>
</svg>
