<svg width="24" height="25" viewBox="0 0 24 25" fill="none" xmlns="http://www.w3.org/2000/svg">
<g clip-path="url(#clip0_3163_43101)">
<path d="M22.1623 5.74186C21.3989 6.07956 20.5893 6.30134 19.7603 6.39986C20.634 5.8773 21.288 5.05488 21.6003 4.08586C20.7803 4.57386 19.8813 4.91586 18.9443 5.10086C18.3149 4.42744 17.4807 3.98083 16.5713 3.83045C15.6618 3.68007 14.7282 3.83436 13.9156 4.26932C13.1029 4.70428 12.4567 5.39555 12.0774 6.23566C11.6981 7.07577 11.607 8.01764 11.8183 8.91486C10.1554 8.83152 8.52863 8.39939 7.04358 7.64653C5.55854 6.89367 4.24842 5.83691 3.1983 4.54486C2.82659 5.18331 2.63125 5.90909 2.6323 6.64786C2.6323 8.09786 3.3703 9.37886 4.4923 10.1289C3.82831 10.108 3.17893 9.92865 2.5983 9.60586V9.65786C2.5985 10.6236 2.93267 11.5595 3.54414 12.3069C4.15562 13.0544 5.00678 13.5673 5.9533 13.7589C5.33691 13.9259 4.6906 13.9505 4.0633 13.8309C4.33016 14.6621 4.8503 15.3891 5.55089 15.91C6.25147 16.4309 7.09742 16.7197 7.9703 16.7359C7.10278 17.4172 6.10947 17.9208 5.04718 18.218C3.98488 18.5152 2.87442 18.6001 1.7793 18.4679C3.69099 19.6973 5.91639 20.35 8.1893 20.3479C15.8823 20.3479 20.0893 13.9749 20.0893 8.44786C20.0893 8.26786 20.0843 8.08586 20.0763 7.90786C20.8952 7.31603 21.6019 6.58288 22.1633 5.74286L22.1623 5.74186Z" fill="white"/>
</g>
<defs>
<clipPath id="clip0_3163_43101">
<rect width="24" height="24" fill="white" transform="translate(0 0.0859375)"/>
</clipPath>
</defs>
</svg>
